<svg xmlns="http://www.w3.org/2000/svg" version="1.1" xmlns:xlink="http://www.w3.org/1999/xlink" xmlns:svgjs="http://svgjs.dev/svgjs" viewBox="0 0 800 800" opacity="1"><g stroke-width="3" stroke="#ea338a" fill="none"><path d="M973.0449637464408 -323.0254598128224C1139.327425193678 -35.26697442035072 1009.4377930342132 954.9570300554487 774.5659329937469 1190.0953133303174C539.6940729532805 1425.2335966051864 11.942496999440664 1093.3967852990236 -154.33996444779655 805.638299906552C-320.62242589503387 517.8798145140802 -258.4617419934585 43.99286672132655 -23.589881952992187 -191.1454165535439C211.28197808747404 -426.2836998284143 806.7625022992033 -610.7839452052941 973.0449637464408 -323.0254598128224C1139.327425193678 -35.26697442035072 1009.4377930342132 954.9570300554487 774.5659329937469 1190.0953133303174 "></path><path d="M949.168144934333 -292.8993125208168C1108.5221704879355 -17.130764019698063 984.0446063351151 931.8339069362762 758.9590737963349 1157.1747617413591C533.8735412575547 1382.5156165464414 28.111614301791406 1064.5053390447024 -131.2424112518109 788.7367905435835C-290.5964368054133 512.9682420424647 -231.0257813997369 58.82658374107609 -5.940248860956672 -166.5142710640082C219.1452836778235 -391.8551258690923 789.8141193807305 -568.6678610219356 949.168144934333 -292.8993125208168C1108.5221704879355 -17.130764019698063 984.0446063351151 931.8339069362762 758.9590737963349 1157.1747617413591 "></path><path d="M925.291173534335 -262.7732872991237C1077.7167631943025 1.0053243106419814 958.6512670481263 908.7106617467914 743.3520620110323 1124.254088082088C528.0528569739381 1339.7975144173843 44.280579016251636 1035.6137707200685 -108.14501064371586 771.8351591103028C-260.57060030368336 508.0565475005369 -203.58997339390595 73.66017869051291 11.709231643188104 -141.883247644785C227.00843668028233 -357.4266739800829 772.8655838743675 -526.5518989088894 925.291173534335 -262.7732872991237C1077.7167631943025 1.0053243106419814 958.6512670481263 908.7106617467914 743.3520620110323 1124.254088082088 "></path><path d="M901.4144157573837 -232.64720104227433C1046.9115695237163 19.141473676138503 933.2581413841845 885.5874775924628 727.7452638487766 1091.333475457973C522.2323863133686 1297.0794733234834 60.44975735375863 1006.722263430591 -85.04739641257396 754.9335887121781C-230.5445501789066 503.1449139937654 -176.15395176502813 88.49383467510609 29.35892577037987 -117.25216319040555C234.87180330578792 -322.9981610559172 755.917261991051 -484.43587576068705 901.4144157573837 -232.64720104227433C1046.9115695237163 19.141473676138503 933.2581413841845 885.5874775924628 727.7452638487766 1091.333475457973 "></path><path d="M877.5375359101199 -202.52120633815935C1016.1062537828177 37.27753148890042 907.8648936499301 862.4642018853999 712.1383436162082 1058.4127712811242C516.4117935824866 1254.3613406768482 76.61881362095323 977.830664588379 -61.949904251744556 738.0319267613193C-200.5186221244423 498.2331889342595 -148.7180522064628 103.32739910696478 47.008497827259134 -92.62117028876048C242.735047860981 -288.56973968448585 738.9688180374221 -442.3199441652191 877.5375359101199 -202.52120633815935C1016.1062537828177 37.27753148890042 907.8648936499301 862.4642018853999 712.1383436162082 1058.4127712811242 "></path><path d="M853.6606560628561 -172.39518111646623C985.3009380419189 55.413619819240466 882.4716459156759 839.3409566959149 696.5314233836402 1025.492097621853C510.5912008516042 1211.6432385477908 92.78786988814772 948.9390962637451 -38.85241209091515 721.1302953280383C-170.49269406997797 493.3214943923317 -121.28215264789748 118.1609940564017 64.6580698841384 -67.99014686953728C250.59829241617422 -254.1412877954764 722.0203740837933 -400.203982052173 853.6606560628561 -172.39518111646623C985.3009380419189 55.413619819240466 882.4716459156759 839.3409566959149 696.5314233836402 1025.492097621853 "></path><path d="M829.7837456980142 -142.26903382446056C954.495591783442 73.54983021989324 857.0783676638434 816.2178335767426 680.9244726334937 992.5715460328943C504.77057760314403 1168.925258489046 108.95689563776409 920.0476500094239 -15.754950447663873 704.2287859650701C-140.46679653309184 488.40992192071644 -93.84628360691028 132.99471107615113 82.30761142343954 -43.3590013800017C258.4615064537892 -219.71271383615448 705.0718996125861 -358.08789786881437 829.7837456980142 -142.26903382446056C954.495591783442 73.54983021989324 857.0783676638434 816.2178335767426 680.9244726334937 992.5715460328943 "></path><path d="M805.9068658507504 -112.14300860276745C923.6902760425435 91.68591855023328 831.6851199295891 793.0945883872578 665.3175524009255 959.6508723736233C498.9499848722619 1126.2071563599886 125.1259519049587 891.15608168479 7.342541713165588 687.3271545317893C-110.44086847862752 483.49822737878867 -66.41038404834495 147.82830602558806 99.95718348031869 -18.727977960778503C266.3247510089823 -185.284261947145 688.1234556589573 -315.97193575576824 805.9068658507504 -112.14300860276745C923.6902760425435 91.68591855023328 831.6851199295891 793.0945883872578 665.3175524009255 959.6508723736233 "></path><path d="M782.0300470386428 -82.01698338107434C892.885021336801 109.82200688057344 806.2919332304909 769.971343197773 649.7106932035135 926.7301987143524C493.129453176536 1083.4890542309315 141.29506920730944 862.2645133601563 30.44009490915124 670.4255230985086C-80.41487938900696 478.58653283686067 -38.97442345462332 162.661900975025 117.6068165723542 5.903045458444694C274.18805659933173 -150.85581005813555 671.1750727404847 -273.8559736427221 782.0300470386428 -82.01698338107434C892.885021336801 109.82200688057344 806.2919332304909 769.971343197773 649.7106932035135 926.7301987143524 "></path><path d="M758.1531366738009 -51.890866606646796C862.0796750783243 127.95818676364797 780.8986549786587 746.8481895610228 634.1037424533672 893.8096166078158C487.30882992807574 1040.7710436546088 157.4640949569258 833.373036588257 53.53755655240252 653.5239832179623C-50.388981852120764 473.6749298476674 -11.53855441363612 177.4955874771963 135.2563581116553 30.53416043040238C282.0512706369467 -116.42726661639176 654.2265982692775 -231.73991997694168 758.1531366738009 -51.890866606646796C862.0796750783243 127.95818676364797 780.8986549786587 746.8481895610228 634.1037424533672 893.8096166078158 "></path><path d="M734.2762568265371 -21.764841384953684C831.2743593374253 146.09427509398813 755.5054072444041 723.7249443715377 618.4968222207989 860.8889429485446C481.4882371971936 998.0529415255514 173.6331512241204 804.4814682636231 76.63504871323192 636.6223517846813C-20.36305379765645 468.7632353057395 15.897345144929204 192.32918242663322 152.9059301685345 55.165183849625464C289.9145151921398 -81.9988147273823 637.2781543156486 -189.62395786389555 734.2762568265371 -21.764841384953684C831.2743593374253 146.09427509398813 755.5054072444041 723.7249443715377 618.4968222207989 860.8889429485446 "></path><path d="M710.3993769792733 8.361275389473803C800.4690435965267 164.23045497706266 730.1121595101499 700.6017907347873 602.8899019882307 827.968360842008C475.66764446631146 955.3349309492287 189.8022074913149 775.5899914917236 99.73254087406133 619.7208119041347C9.662874256807811 463.8516323165461 43.33324470349453 207.16286892880453 170.55550222541376 79.79629882158304C297.777759747333 -47.570271285638455 620.3297103620197 -147.50790419811506 710.3993769792733 8.361275389473803C800.4690435965267 164.23045497706266 730.1121595101499 700.6017907347873 602.8899019882307 827.968360842008 "></path><path d="M686.5224666144313 38.487300611166916C769.66369733805 182.3665433074027 704.7188812583175 677.4785455453025 587.2829512380844 795.0476871827368C469.8470212178512 912.6168288201713 205.97123324093127 746.6984231670899 122.83000251731266 602.8191804708541C39.688771793694 458.9399377746182 70.76911374448173 221.99646387824146 188.20504376471484 104.42732224080618C305.64097378494796 -13.14181939662899 603.3812358908126 -105.39194208506893 686.5224666144313 38.487300611166916C769.66369733805 182.3665433074027 704.7188812583175 677.4785455453025 587.2829512380844 795.0476871827368 "></path><path d="M662.6456478023238 68.61338686801628C738.8584426323075 200.50269267289912 679.3256945592194 654.3553613909738 571.6760920406724 762.1270745586221C464.0264895221253 869.8987877262703 222.14035054328207 717.8069158776125 145.92755571329832 585.9176100727295C69.71476088331457 454.0283042678466 98.2050743382033 236.83011986283464 205.8546768567503 129.05840669518562C313.5042793752974 21.28669352753667 586.43285297234 -63.27591893686656 662.6456478023238 68.61338686801628C738.8584426323075 200.50269267289912 679.3256945592194 654.3553613909738 571.6760920406724 762.1270745586221 "></path><path d="M638.76876795506 98.73941208970939C708.0531268914089 218.63878100323927 653.932446824965 631.232116201489 556.0691718081041 729.2064008993511C458.2058967912433 827.1806855972131 238.30940681047662 688.9153475529786 169.02504787412772 569.0159786394487C99.74068893777883 449.1166097259188 125.64097389676863 251.66371481227145 223.50424891362957 153.68943011440882C321.3675239304905 55.715145416546136 569.4844090187111 -21.159956823820494 638.76876795506 98.73941208970939C708.0531268914089 218.63878100323927 653.932446824965 631.232116201489 556.0691718081041 729.2064008993511 "></path><path d="M614.8918728490071 128.86546782898063C677.247795891721 236.77489985115756 628.5391838319217 608.1089015295822 540.4622363167468 696.2857577576581C452.38528880157196 784.4626139857339 254.47844781888205 660.0238097459229 192.12252477616806 552.114377723746C129.76660173345408 444.20494570156916 153.0768581965449 266.4973402792865 241.15380571171977 178.3204840512101C329.23075322689465 90.14362782313373 552.535949806293 20.956035806803754 614.8918728490071 128.86546782898063C677.247795891721 236.77489985115756 628.5391838319217 608.1089015295822 540.4622363167468 696.2857577576581 "></path><path d="M591.0150082605323 158.99152356825186C646.4424954096114 254.91101869907584 603.1459513564564 584.9856868576755 524.8553313429677 663.3651146159652C446.564711329479 741.7445423742548 270.64751934486566 631.1322719388672 215.22003219578653 535.2127768080434C159.79254504670746 439.2932816772194 180.51277301389928 281.33096574630156 258.80339302738804 202.9515379880114C337.0940130408768 124.57211022972126 535.5875211114533 63.072028437428 591.0150082605323 158.99152356825186C646.4424954096114 254.91101869907584 603.1459513564564 584.9856868576755 524.8553313429677 663.3651146159652 "></path><path d="M567.1381284132685 189.11757930752316C615.6371796687126 273.04713754699407 577.752703622202 561.8624721857689 509.2484111103995 630.4444714742723C440.74411859859674 699.0264707627757 286.8165756120602 602.2407341318116 238.317524356616 518.3111758923407C189.81847310117178 434.38161765286975 207.9486725724646 296.1645912133166 276.45296508426725 227.58259192481273C344.9572575960699 159.00059263630885 518.6390771578243 105.1880210680522 567.1381284132685 189.11757930752316C615.6371796687126 273.04713754699407 577.752703622202 561.8624721857689 509.2484111103995 630.4444714742723 "></path><path d="M543.2612485660047 219.24366556437252C584.8318639278141 291.1832869124904 552.3594558879479 538.7392880314403 493.6414908778313 597.5238588501575C434.9235258677147 656.3084296688747 302.9856318792547 573.349226842334 261.4150165174454 501.40960549421607C219.8444011556361 429.4699841460981 235.38457213102993 310.9982471979098 294.1025371411465 252.21367637919218C352.82050215126304 193.42910556047457 501.69063320419536 147.30404421625457 543.2612485660047 219.24366556437252C584.8318639278141 291.1832869124904 552.3594558879479 538.7392880314403 493.6414908778313 597.5238588501575 "></path><path d="M519.384399236319 249.36972130364376C554.0265787044934 309.3194057604087 526.9662386712716 515.6160733595336 478.0346011628411 564.6032157084646C429.1029636544107 613.5903580573956 319.15471866402737 544.4576890352783 284.5125391958529 484.50800457851346C249.87035972767848 424.55832012174847 262.8205022071734 325.8318726649248 311.75213971560385 276.84473031599344C360.6837772240343 227.8575879670621 484.74221976814465 189.42003684687882 519.384399236319 249.36972130364376C554.0265787044934 309.3194057604087 526.9662386712716 515.6160733595336 478.0346011628411 564.6032157084646 "></path><path d="M495.50750413026617 279.49574652533687C523.2212477048057 327.45549409074886 501.5729756782282 492.4928281700487 462.42766567148385 531.6825420491936C423.2823556647395 570.8722559283383 335.32375967243286 515.5661207106446 307.61001609789326 467.6063731452326C279.89627252335373 419.6466255798207 290.25638650694964 340.6654676143617 329.401696513694 301.47575373521664C368.5470065204384 262.28603985607157 467.79376055572664 231.53599895992494 495.50750413026617 279.49574652533687C523.2212477048057 327.45549409074886 501.5729756782282 492.4928281700487 462.42766567148385 531.6825420491936 "></path><path d="M471.63062428300236 309.62184804097535C492.41593196390704 345.59165871503427 476.17972794397394 469.3696592745092 446.82074543891565 498.7619446838678C417.46176293385736 528.1542300932265 351.49281593962735 486.6746286799561 330.70750825872267 450.7048180058971C309.92220057781805 414.7350073318381 317.69228606551496 355.49913885774396 347.05126857057326 326.10685344838515C376.41025107563155 296.71456803902635 450.8453166020977 273.6520373669164 471.63062428300236 309.62184804097535C492.41593196390704 345.59165871503427 476.17972794397394 469.3696592745092 446.82074543891565 498.7619446838678 "></path><path d="M447.75374443573855 339.7479037802466C461.6106162230083 363.72777756295255 450.78648020971957 446.2464446026025 431.2138252063474 465.8413015421749C411.6411702029752 485.43615848174727 367.6618722068219 457.7830908729004 353.80500041955213 433.80321709019444C339.9481286322823 409.82334330748847 345.1281856240803 370.33276432475895 364.70084062745246 350.7379073851865C384.27349563082464 331.14305044561394 433.8968726484688 315.76802999754057 447.75374443573855 339.7479037802466C461.6106162230083 363.72777756295255 450.78648020971957 446.2464446026025 431.2138252063474 465.8413015421749 "></path><path d="M423.8768798472638 369.87394426072876C430.80531574089866 381.8638811520817 425.3932477342543 423.1232146719067 415.6069202325682 432.92064314169295C405.82059273088214 442.7180716114791 383.83094373280545 428.89153780705567 376.9025078391706 416.90160091570266C369.9740719455357 404.9116640243497 372.5641004414347 385.16637453298495 382.3504279431208 375.3689460631987C392.13675544480685 365.5715175934124 416.9484439536289 357.88400736937575 423.8768798472638 369.87394426072876C430.80531574089866 381.8638811520817 425.3932477342543 423.1232146719067 415.6069202325682 432.92064314169295 "></path></g></svg>