<svg xmlns="http://www.w3.org/2000/svg" version="1.1" xmlns:xlink="http://www.w3.org/1999/xlink" xmlns:svgjs="http://svgjs.dev/svgjs" viewBox="0 0 800 800"><g fill="hsl(282, 100%, 75%)"><path d="M213 697H263C291 697 313 719 313 747H263C235 747 213 725 213 697Z " transform="matrix(-0.053310227124613425,0.2508048996735916,-0.2508048996735916,-0.053310227124613425,458.1017272981064,694.5282953698163)" opacity="0.39"></path><path d="M671 589H721C749 589 771 611 771 639H721C693 639 671 617 671 589Z " transform="matrix(-0.3849982863919743,-0.0748360859263638,0.0748360859263638,-0.3849982863919743,952.6344077298261,904.3457657975805)" opacity="0.60"></path><path d="M687 327H737C765 327 787 349 787 377H737C709 377 687 355 687 327Z " transform="matrix(-0.3840874521908921,-0.11013530464359497,0.11013530464359497,-0.3840874521908921,981.304825030142,568.3685026935235)" opacity="0.61"></path><path d="M694 466H744C772 466 794 488 794 516H744C716 516 694 494 694 466Z " transform="matrix(-0.3840874521908921,-0.11013530464359497,0.11013530464359497,-0.3840874521908921,975.6846298500187,761.5276056805628)" opacity="0.61"></path><path d="M522 572H572C600 572 622 594 622 622H572C544 622 522 600 522 572Z " transform="matrix(-0.2715891979591676,0.1763720873851052,-0.1763720873851052,-0.2715891979591676,832.6431574015517,658.2539171973428)" opacity="0.50"></path><path d="M444 427H494C522 427 544 449 544 477H494C466 477 444 455 444 427Z " transform="matrix(-0.18697745396098422,0.23089792623258298,-0.23089792623258298,-0.18697745396098422,690.7327249138536,422.45023363146885)" opacity="0.45"></path><path d="M184 292H234C262 292 284 314 284 342H234C206 342 184 320 184 292Z " transform="matrix(-0.04392291437741644,0.24909922577326724,-0.24909922577326724,-0.04392291437741644,323.2424165344412,272.63434502669645)" opacity="0.39"></path><path d="M283 47H333C361 47 383 69 383 97H333C305 97 283 75 283 47Z " transform="matrix(-0.3237523551696628,0.11783622055533698,-0.11783622055533698,-0.3237523551696628,449.2937421514819,56.070708127288505)" opacity="0.53"></path><path d="M669 186H719C747 186 769 208 769 236H719C691 236 669 214 669 186Z " transform="matrix(-0.3849982863919743,-0.0748360859263638,0.0748360859263638,-0.3849982863919743,980.0233537853669,346.04178420976217)" opacity="0.60"></path><path d="M144 38H194C222 38 244 60 244 88H194C166 88 144 66 144 38Z " transform="matrix(-0.28859869835246915,0.15997287073426103,-0.15997287073426103,-0.28859869835246915,260.0664383366374,50.14698107375892)" opacity="0.51"></path><path d="M384 553H434C462 553 484 575 484 603H434C406 603 384 581 384 553Z " transform="matrix(-0.15152448414145026,0.24248986396669597,-0.24248986396669597,-0.15152448414145026,639.9207674901397,560.3405508722122)" opacity="0.44"></path><path d="M120 578H170C198 578 220 600 220 628H170C142 628 120 606 120 578Z " transform="matrix(0.004128754781945978,0.23653620304050144,-0.23653620304050144,0.004128754781945978,311.92944212049156,560.2992063496014)" opacity="0.36"></path><path d="M688 47H738C766 47 788 69 788 97H738C710 97 688 75 688 47Z " transform="matrix(0.0637656615365773,-0.5193296377628593,0.5193296377628593,0.0637656615365773,653.5492078670801,450.67414503835664)" opacity="0.80"></path><path d="M325 195H375C403 195 425 217 425 245H375C347 245 325 223 325 195Z " transform="matrix(-0.11620044788424286,0.2491926646540692,-0.2491926646540692,-0.11620044788424286,473.3975541804863,152.11684928925746)" opacity="0.42"></path><path d="M11 496H61C89 496 111 518 111 546H61C33 546 11 524 11 496Z " transform="matrix(0.06491022392258149,0.1997731275608883,-0.1997731275608883,0.06491022392258149,161.12227579994538,474.99561255512083)" opacity="0.32"></path><path d="M151 430H201C229 430 251 452 251 480H201C173 480 151 458 151 430Z " transform="matrix(-0.021367971762367235,0.2442370348477848,-0.2442370348477848,-0.021367971762367235,316.4228131799779,415.63078314747236)" opacity="0.37"></path><path d="M302 386H352C380 386 402 408 402 436H352C324 436 302 414 302 386Z " transform="matrix(-0.10649697297104971,0.2508911457269158,-0.2508911457269158,-0.10649697297104971,492.6031953795719,366.45657259522704)" opacity="0.42"></path><path d="M95 720H145C173 720 195 742 195 770H145C117 770 95 748 95 720Z " transform="matrix(0.023809641722063624,0.22653360886817717,-0.22653360886817717,0.023809641722063624,310.3151405570928,694.4144436311769)" opacity="0.35"></path><path d="M14 51H64C92 51 114 73 114 101H64C36 101 14 79 14 51Z " transform="matrix(-0.1874208951716554,0.23144553052273129,-0.23144553052273129,-0.1874208951716554,93.58479761071352,75.43147407959101)" opacity="0.46"></path></g><g fill="none" stroke-width="3" stroke="hsl(282, 100%, 75%)"><path d="M327 697H377C405 697 427 719 427 747H377C349 747 327 725 327 697Z " transform="matrix(-0.11620044788424286,0.2491926646540692,-0.2491926646540692,-0.11620044788424286,600.7246727325976,711.9510887978392)" opacity="0.42"></path><path d="M445 703H495C523 703 545 725 545 753H495C467 753 445 731 445 703Z " transform="matrix(-0.18697745396098422,0.23089792623258298,-0.23089792623258298,-0.18697745396098422,755.6475300080076,749.825112998468)" opacity="0.45"></path><path d="M558 45H608C636 45 658 67 658 95H608C580 95 558 73 558 45Z " transform="matrix(-0.22684524877716047,-0.4092396618504243,0.4092396618504243,-0.22684524877716047,717.2751349269838,334.69688181945924)" opacity="0.72"></path><path d="M27 197H77C105 197 127 219 127 247H77C49 247 27 225 27 197Z " transform="matrix(0.05863271103897352,0.20447656335886658,-0.20447656335886658,0.05863271103897352,117.87907831566741,193.23884277071517)" opacity="0.32"></path><path d="M415 290H465C493 290 515 312 515 340H465C437 340 415 318 415 290Z " transform="matrix(-0.16178032043602167,0.23984918855192985,-0.23984918855192985,-0.16178032043602167,615.780343396608,254.43092826069946)" opacity="0.44"></path><path d="M569 707H619C647 707 669 729 669 757H619C591 757 569 735 569 707Z " transform="matrix(-0.3240215338120327,0.1179341935688598,-0.1179341935688598,-0.3240215338120327,905.8971591220537,896.1824969312837)" opacity="0.53"></path><path d="M255 539H305C333 539 355 561 355 589H305C277 589 255 567 255 539Z " transform="matrix(-0.08195694942484172,0.2522375540019403,-0.2522375540019403,-0.08195694942484172,472.25885003167105,533.2912655050189)" opacity="0.41"></path><path d="M502 172H552C580 172 602 194 602 222H552C524 222 502 200 502 172Z " transform="matrix(-0.25029357228371707,0.1955507704322883,-0.1955507704322883,-0.25029357228371707,728.6855536757726,138.36380846126912)" opacity="0.49"></path><path d="M691 713H741C769 713 791 735 791 763H741C713 763 691 741 691 713Z " transform="matrix(-0.3840874521908921,-0.11013530464359497,0.11013530464359497,-0.3840874521908921,944.3289472464778,1103.0668004577822)" opacity="0.61"></path></g></svg>