<svg xmlns="http://www.w3.org/2000/svg" version="1.1" xmlns:xlink="http://www.w3.org/1999/xlink" xmlns:svgjs="http://svgjs.dev/svgjs" viewBox="0 0 1422 800"><circle r="6.5" cx="1145" cy="782" stroke-width="2" stroke="hsl(107, 50%, 50%)" fill="none" opacity="0.42"></circle><circle r="11" cx="215" cy="669" stroke-width="2" stroke="hsl(159, 50%, 50%)" fill="none" opacity="0.38"></circle><circle r="10" cx="252" cy="641" stroke-width="2" stroke="hsl(158, 50%, 50%)" fill="none" opacity="0.74"></circle><circle r="16" cx="630" cy="624" fill="hsl(158, 50%, 50%)" opacity="0.76"></circle><circle r="16" cx="486" cy="321" stroke-width="2" stroke="hsl(178, 50%, 50%)" fill="none" opacity="0.74"></circle><circle r="12.5" cx="167" cy="761" stroke-width="2" stroke="hsl(165, 50%, 50%)" fill="none" opacity="0.85"></circle><circle r="8.5" cx="864" cy="30" stroke-width="2" stroke="hsl(98, 50%, 50%)" fill="none" opacity="0.85"></circle><circle r="13.5" cx="1252" cy="102" fill="hsl(134, 50%, 50%)" opacity="0.29"></circle><circle r="9.5" cx="21" cy="19" stroke-width="2" stroke="hsl(156, 50%, 50%)" fill="none" opacity="0.56"></circle><circle r="9" cx="202" cy="712" stroke-width="2" stroke="hsl(159, 50%, 50%)" fill="none" opacity="0.34"></circle><circle r="11.5" cx="369" cy="694" stroke-width="2" stroke="hsl(169, 50%, 50%)" fill="none" opacity="0.34"></circle><circle r="13.5" cx="26" cy="728" stroke-width="2" stroke="hsl(204, 50%, 50%)" fill="none" opacity="0.61"></circle><circle r="10" cx="944" cy="476" fill="hsl(110, 50%, 50%)" opacity="0.55"></circle><circle r="12" cx="831" cy="651" fill="hsl(121, 50%, 50%)" opacity="0.94"></circle><circle r="9.5" cx="201" cy="27" stroke-width="2" stroke="hsl(104, 50%, 50%)" fill="none" opacity="0.55"></circle><circle r="14.5" cx="378" cy="464" fill="hsl(172, 50%, 50%)" opacity="0.95"></circle><circle r="9.5" cx="819" cy="469" stroke-width="2" stroke="hsl(124, 50%, 50%)" fill="none" opacity="1.00"></circle><circle r="11.5" cx="856" cy="417" fill="hsl(119, 50%, 50%)" opacity="0.74"></circle><circle r="8.5" cx="1144" cy="319" fill="hsl(107, 50%, 50%)" opacity="0.23"></circle><circle r="16" cx="316" cy="358" fill="hsl(163, 50%, 50%)" opacity="0.66"></circle><circle r="8" cx="1062" cy="655" stroke-width="2" stroke="hsl(103, 50%, 50%)" fill="none" opacity="0.87"></circle><circle r="15" cx="576" cy="512" stroke-width="2" stroke="hsl(171, 50%, 50%)" fill="none" opacity="0.90"></circle><circle r="11" cx="683" cy="392" stroke-width="2" stroke="hsl(148, 50%, 50%)" fill="none" opacity="0.31"></circle><circle r="10" cx="888" cy="226" stroke-width="2" stroke="hsl(116, 50%, 50%)" fill="none" opacity="0.67"></circle><circle r="8.5" cx="994" cy="459" fill="hsl(106, 50%, 50%)" opacity="0.96"></circle><circle r="11.5" cx="220" cy="609" stroke-width="2" stroke="hsl(159, 50%, 50%)" fill="none" opacity="0.94"></circle><circle r="16.5" cx="430" cy="314" stroke-width="2" stroke="hsl(176, 50%, 50%)" fill="none" opacity="0.73"></circle><circle r="12.5" cx="728" cy="518" fill="hsl(138, 50%, 50%)" opacity="0.70"></circle><circle r="13" cx="1190" cy="94" stroke-width="2" stroke="hsl(122, 50%, 50%)" fill="none" opacity="0.24"></circle><circle r="17.5" cx="29" cy="263" fill="hsl(204, 50%, 50%)" opacity="0.57"></circle><circle r="11.5" cx="125" cy="552" stroke-width="2" stroke="hsl(176, 50%, 50%)" fill="none" opacity="0.68"></circle><circle r="10.5" cx="1143" cy="236" stroke-width="2" stroke="hsl(107, 50%, 50%)" fill="none" opacity="0.64"></circle><circle r="12" cx="870" cy="595" stroke-width="2" stroke="hsl(116, 50%, 50%)" fill="none" opacity="0.11"></circle><circle r="9" cx="1138" cy="382" fill="hsl(107, 50%, 50%)" opacity="0.97"></circle><circle r="12" cx="621" cy="240" stroke-width="2" stroke="hsl(163, 50%, 50%)" fill="none" opacity="0.77"></circle><circle r="16.5" cx="368" cy="321" fill="hsl(169, 50%, 50%)" opacity="0.12"></circle><circle r="11.5" cx="899" cy="661" stroke-width="2" stroke="hsl(114, 50%, 50%)" fill="none" opacity="0.67"></circle><circle r="12" cx="431" cy="606" fill="hsl(176, 50%, 50%)" opacity="0.79"></circle><circle r="8" cx="991" cy="724" stroke-width="2" stroke="hsl(106, 50%, 50%)" fill="none" opacity="0.94"></circle><circle r="9" cx="921" cy="268" stroke-width="2" stroke="hsl(112, 50%, 50%)" fill="none" opacity="0.26"></circle><circle r="11.5" cx="529" cy="777" stroke-width="2" stroke="hsl(177, 50%, 50%)" fill="none" opacity="0.40"></circle><circle r="12.5" cx="772" cy="191" stroke-width="2" stroke="hsl(131, 50%, 50%)" fill="none" opacity="0.77"></circle><circle r="8.5" cx="1136" cy="693" stroke-width="2" stroke="hsl(107, 50%, 50%)" fill="none" opacity="0.61"></circle><circle r="14.5" cx="494" cy="580" stroke-width="2" stroke="hsl(178, 50%, 50%)" fill="none" opacity="0.57"></circle><circle r="17.5" cx="249" cy="246" fill="hsl(158, 50%, 50%)" opacity="0.84"></circle><circle r="11" cx="255" cy="699" fill="hsl(158, 50%, 50%)" opacity="0.60"></circle><circle r="13.5" cx="592" cy="461" stroke-width="2" stroke="hsl(167, 50%, 50%)" fill="none" opacity="0.16"></circle><circle r="9" cx="989" cy="347" fill="hsl(106, 50%, 50%)" opacity="0.19"></circle><circle r="15" cx="1272" cy="596" fill="hsl(131, 50%, 50%)" opacity="0.22"></circle><circle r="12" cx="1400" cy="339" fill="hsl(171, 50%, 50%)" opacity="0.83"></circle><circle r="16" cx="336" cy="418" stroke-width="2" stroke="hsl(166, 50%, 50%)" fill="none" opacity="0.88"></circle><circle r="15" cx="268" cy="399" stroke-width="2" stroke="hsl(158, 50%, 50%)" fill="none" opacity="0.96"></circle><circle r="9.5" cx="965" cy="185" stroke-width="2" stroke="hsl(108, 50%, 50%)" fill="none" opacity="0.59"></circle><circle r="14.5" cx="1332" cy="694" stroke-width="2" stroke="hsl(144, 50%, 50%)" fill="none" opacity="0.65"></circle><circle r="9.5" cx="1085" cy="410" stroke-width="2" stroke="hsl(103, 50%, 50%)" fill="none" opacity="0.37"></circle><circle r="15" cx="200" cy="205" stroke-width="2" stroke="hsl(159, 50%, 50%)" fill="none" opacity="0.79"></circle><circle r="14" cx="264" cy="171" stroke-width="2" stroke="hsl(149, 50%, 50%)" fill="none" opacity="0.86"></circle><circle r="9.5" cx="1023" cy="149" stroke-width="2" stroke="hsl(104, 50%, 50%)" fill="none" opacity="0.41"></circle><circle r="11" cx="785" cy="366" fill="hsl(127, 50%, 50%)" opacity="0.72"></circle><circle r="17.5" cx="32" cy="323" stroke-width="2" stroke="hsl(204, 50%, 50%)" fill="none" opacity="0.61"></circle><circle r="12.5" cx="678" cy="268" stroke-width="2" stroke="hsl(148, 50%, 50%)" fill="none" opacity="0.32"></circle><circle r="10" cx="539" cy="28" stroke-width="2" stroke="hsl(122, 50%, 50%)" fill="none" opacity="0.30"></circle><circle r="9.5" cx="1096" cy="349" fill="hsl(104, 50%, 50%)" opacity="0.29"></circle><circle r="11" cx="719" cy="86" fill="hsl(106, 50%, 50%)" opacity="0.43"></circle><circle r="9.5" cx="1033" cy="772" fill="hsl(104, 50%, 50%)" opacity="0.60"></circle><circle r="10.5" cx="693" cy="29" stroke-width="2" stroke="hsl(103, 50%, 50%)" fill="none" opacity="0.90"></circle><circle r="11.5" cx="404" cy="722" fill="hsl(174, 50%, 50%)" opacity="0.31"></circle><circle r="10" cx="1082" cy="149" stroke-width="2" stroke="hsl(106, 50%, 50%)" fill="none" opacity="0.59"></circle><circle r="10.5" cx="621" cy="286" stroke-width="2" stroke="hsl(163, 50%, 50%)" fill="none" opacity="0.58"></circle><circle r="8" cx="862" cy="119" stroke-width="2" stroke="hsl(106, 50%, 50%)" fill="none" opacity="0.16"></circle><circle r="13" cx="225" cy="552" fill="hsl(158, 50%, 50%)" opacity="0.41"></circle><circle r="13.5" cx="1209" cy="30" fill="hsl(134, 50%, 50%)" opacity="0.60"></circle><circle r="9.5" cx="972" cy="774" stroke-width="2" stroke="hsl(108, 50%, 50%)" fill="none" opacity="0.59"></circle><circle r="10.5" cx="318" cy="640" stroke-width="2" stroke="hsl(163, 50%, 50%)" fill="none" opacity="0.94"></circle><circle r="13.5" cx="587" cy="408" stroke-width="2" stroke="hsl(167, 50%, 50%)" fill="none" opacity="0.18"></circle><circle r="13.5" cx="397" cy="368" fill="hsl(172, 50%, 50%)" opacity="0.84"></circle><circle r="9.5" cx="1113" cy="516" fill="hsl(105, 50%, 50%)" opacity="0.50"></circle><circle r="9.5" cx="1064" cy="553" stroke-width="2" stroke="hsl(103, 50%, 50%)" fill="none" opacity="0.22"></circle><circle r="13" cx="630" cy="366" fill="hsl(158, 50%, 50%)" opacity="0.50"></circle><circle r="11" cx="939" cy="548" stroke-width="2" stroke="hsl(110, 50%, 50%)" fill="none" opacity="0.67"></circle><circle r="10.5" cx="379" cy="780" fill="hsl(172, 50%, 50%)" opacity="0.71"></circle><circle r="15.5" cx="23" cy="427" fill="hsl(204, 50%, 50%)" opacity="0.34"></circle><circle r="12.5" cx="684" cy="665" fill="hsl(148, 50%, 50%)" opacity="0.18"></circle><circle r="11" cx="16" cy="479" fill="hsl(211, 50%, 50%)" opacity="0.93"></circle><circle r="10.5" cx="179" cy="606" stroke-width="2" stroke="hsl(161, 50%, 50%)" fill="none" opacity="0.42"></circle><circle r="12.5" cx="593" cy="777" stroke-width="2" stroke="hsl(167, 50%, 50%)" fill="none" opacity="0.37"></circle><circle r="13" cx="777" cy="275" stroke-width="2" stroke="hsl(131, 50%, 50%)" fill="none" opacity="0.22"></circle><circle r="12.5" cx="152" cy="229" stroke-width="2" stroke="hsl(170, 50%, 50%)" fill="none" opacity="0.59"></circle><circle r="15.5" cx="532" cy="703" stroke-width="2" stroke="hsl(177, 50%, 50%)" fill="none" opacity="0.56"></circle><circle r="9" cx="947" cy="709" stroke-width="2" stroke="hsl(110, 50%, 50%)" fill="none" opacity="0.50"></circle><circle r="8" cx="986" cy="510" fill="hsl(106, 50%, 50%)" opacity="0.95"></circle><circle r="9.5" cx="1037" cy="437" fill="hsl(104, 50%, 50%)" opacity="0.50"></circle><circle r="12.5" cx="55" cy="557" fill="hsl(197, 50%, 50%)" opacity="0.98"></circle><circle r="14.5" cx="84" cy="520" fill="hsl(189, 50%, 50%)" opacity="0.23"></circle><circle r="10" cx="982" cy="404" stroke-width="2" stroke="hsl(106, 50%, 50%)" fill="none" opacity="0.32"></circle><circle r="14" cx="468" cy="630" fill="hsl(178, 50%, 50%)" opacity="0.44"></circle><circle r="11.5" cx="790" cy="422" fill="hsl(127, 50%, 50%)" opacity="0.36"></circle><circle r="10" cx="447" cy="783" stroke-width="2" stroke="hsl(178, 50%, 50%)" fill="none" opacity="0.57"></circle><circle r="11" cx="1259" cy="244" stroke-width="2" stroke="hsl(126, 50%, 50%)" fill="none" opacity="0.25"></circle><circle r="14" cx="75" cy="721" stroke-width="2" stroke="hsl(189, 50%, 50%)" fill="none" opacity="0.56"></circle><circle r="16.5" cx="265" cy="314" fill="hsl(158, 50%, 50%)" opacity="0.65"></circle><circle r="15" cx="404" cy="513" fill="hsl(174, 50%, 50%)" opacity="0.86"></circle><circle r="8.5" cx="209" cy="783" stroke-width="2" stroke="hsl(159, 50%, 50%)" fill="none" opacity="0.31"></circle><circle r="11" cx="568" cy="78" stroke-width="2" stroke="hsl(129, 50%, 50%)" fill="none" opacity="0.28"></circle><circle r="10" cx="1086" cy="772" fill="hsl(103, 50%, 50%)" opacity="0.81"></circle><circle r="9" cx="63" cy="19" stroke-width="2" stroke="hsl(138, 50%, 50%)" fill="none" opacity="0.47"></circle><circle r="11" cx="793" cy="733" fill="hsl(127, 50%, 50%)" opacity="0.79"></circle><circle r="12" cx="739" cy="707" fill="hsl(134, 50%, 50%)" opacity="0.58"></circle><circle r="12" cx="1249" cy="410" fill="hsl(126, 50%, 50%)" opacity="0.51"></circle><circle r="11" cx="1181" cy="658" stroke-width="2" stroke="hsl(112, 50%, 50%)" fill="none" opacity="0.20"></circle><circle r="11.5" cx="18" cy="621" fill="hsl(211, 50%, 50%)" opacity="0.30"></circle><circle r="13" cx="695" cy="611" stroke-width="2" stroke="hsl(143, 50%, 50%)" fill="none" opacity="0.67"></circle><circle r="10" cx="816" cy="138" fill="hsl(113, 50%, 50%)" opacity="0.69"></circle><circle r="11.5" cx="381" cy="653" stroke-width="2" stroke="hsl(172, 50%, 50%)" fill="none" opacity="0.97"></circle><circle r="10.5" cx="718" cy="146" stroke-width="2" stroke="hsl(124, 50%, 50%)" fill="none" opacity="0.48"></circle><circle r="9.5" cx="490" cy="23" stroke-width="2" stroke="hsl(122, 50%, 50%)" fill="none" opacity="0.44"></circle><circle r="16" cx="597" cy="684" fill="hsl(167, 50%, 50%)" opacity="0.52"></circle><circle r="14.5" cx="1331" cy="766" stroke-width="2" stroke="hsl(144, 50%, 50%)" fill="none" opacity="0.79"></circle><circle r="13" cx="342" cy="543" stroke-width="2" stroke="hsl(166, 50%, 50%)" fill="none" opacity="0.70"></circle><circle r="10" cx="285" cy="663" stroke-width="2" stroke="hsl(158, 50%, 50%)" fill="none" opacity="0.61"></circle><circle r="14.5" cx="113" cy="475" stroke-width="2" stroke="hsl(176, 50%, 50%)" fill="none" opacity="0.84"></circle><circle r="8" cx="1035" cy="715" fill="hsl(104, 50%, 50%)" opacity="0.62"></circle><circle r="16.5" cx="194" cy="290" fill="hsl(161, 50%, 50%)" opacity="0.70"></circle><circle r="11" cx="164" cy="697" stroke-width="2" stroke="hsl(165, 50%, 50%)" fill="none" opacity="0.80"></circle><circle r="8.5" cx="812" cy="24" fill="hsl(97, 50%, 50%)" opacity="0.18"></circle><circle r="13.5" cx="1347" cy="341" stroke-width="2" stroke="hsl(151, 50%, 50%)" fill="none" opacity="0.35"></circle><circle r="12.5" cx="1279" cy="524" fill="hsl(131, 50%, 50%)" opacity="0.47"></circle><circle r="10.5" cx="871" cy="284" fill="hsl(116, 50%, 50%)" opacity="0.23"></circle><circle r="11" cx="727" cy="407" fill="hsl(138, 50%, 50%)" opacity="0.20"></circle><circle r="13" cx="569" cy="358" stroke-width="2" stroke="hsl(171, 50%, 50%)" fill="none" opacity="0.60"></circle><circle r="16.5" cx="29" cy="208" stroke-width="2" stroke="hsl(204, 50%, 50%)" fill="none" opacity="0.62"></circle><circle r="13" cx="731" cy="232" stroke-width="2" stroke="hsl(138, 50%, 50%)" fill="none" opacity="0.61"></circle><circle r="17.5" cx="506" cy="234" fill="hsl(178, 50%, 50%)" opacity="0.42"></circle><circle r="14" cx="1344" cy="614" fill="hsl(151, 50%, 50%)" opacity="0.59"></circle><circle r="8.5" cx="1085" cy="609" fill="hsl(103, 50%, 50%)" opacity="0.68"></circle><circle r="8.5" cx="1020" cy="538" fill="hsl(105, 50%, 50%)" opacity="0.66"></circle><circle r="12" cx="623" cy="733" stroke-width="2" stroke="hsl(158, 50%, 50%)" fill="none" opacity="0.44"></circle><circle r="13.5" cx="349" cy="743" stroke-width="2" stroke="hsl(166, 50%, 50%)" fill="none" opacity="0.84"></circle><circle r="9.5" cx="885" cy="363" fill="hsl(116, 50%, 50%)" opacity="1.00"></circle><circle r="16" cx="33" cy="378" stroke-width="2" stroke="hsl(204, 50%, 50%)" fill="none" opacity="0.12"></circle><circle r="11" cx="822" cy="311" fill="hsl(121, 50%, 50%)" opacity="0.14"></circle><circle r="9.5" cx="1126" cy="119" stroke-width="2" stroke="hsl(110, 50%, 50%)" fill="none" opacity="0.30"></circle><circle r="12" cx="153" cy="123" stroke-width="2" stroke="hsl(149, 50%, 50%)" fill="none" opacity="0.77"></circle><circle r="13" cx="762" cy="654" fill="hsl(131, 50%, 50%)" opacity="0.67"></circle><circle r="13" cx="461" cy="724" stroke-width="2" stroke="hsl(178, 50%, 50%)" fill="none" opacity="0.83"></circle><circle r="15" cx="482" cy="517" stroke-width="2" stroke="hsl(178, 50%, 50%)" fill="none" opacity="0.99"></circle><circle r="11" cx="438" cy="71" fill="hsl(130, 50%, 50%)" opacity="0.25"></circle><circle r="9.5" cx="236" cy="77" stroke-width="2" stroke="hsl(116, 50%, 50%)" fill="none" opacity="0.82"></circle><circle r="11.5" cx="138" cy="599" stroke-width="2" stroke="hsl(170, 50%, 50%)" fill="none" opacity="0.41"></circle><circle r="15" cx="168" cy="450" stroke-width="2" stroke="hsl(165, 50%, 50%)" fill="none" opacity="0.55"></circle><circle r="11.5" cx="22" cy="58" fill="hsl(173, 50%, 50%)" opacity="0.36"></circle><circle r="10" cx="836" cy="364" fill="hsl(121, 50%, 50%)" opacity="0.89"></circle><circle r="8" cx="913" cy="26" fill="hsl(102, 50%, 50%)" opacity="0.78"></circle><circle r="10" cx="910" cy="774" fill="hsl(114, 50%, 50%)" opacity="0.79"></circle><circle r="12.5" cx="691" cy="478" fill="hsl(143, 50%, 50%)" opacity="0.35"></circle><circle r="15" cx="120" cy="417" fill="hsl(176, 50%, 50%)" opacity="0.32"></circle><circle r="11" cx="841" cy="773" stroke-width="2" stroke="hsl(121, 50%, 50%)" fill="none" opacity="0.22"></circle><circle r="10.5" cx="1185" cy="721" fill="hsl(112, 50%, 50%)" opacity="0.40"></circle><circle r="10" cx="23" cy="654" fill="hsl(204, 50%, 50%)" opacity="0.45"></circle><circle r="14.5" cx="216" cy="348" stroke-width="2" stroke="hsl(159, 50%, 50%)" fill="none" opacity="0.69"></circle><circle r="11" cx="139" cy="656" stroke-width="2" stroke="hsl(170, 50%, 50%)" fill="none" opacity="0.63"></circle><circle r="11.5" cx="1189" cy="446" fill="hsl(112, 50%, 50%)" opacity="0.97"></circle><circle r="10" cx="1083" cy="713" stroke-width="2" stroke="hsl(103, 50%, 50%)" fill="none" opacity="0.78"></circle><circle r="11" cx="662" cy="708" fill="hsl(153, 50%, 50%)" opacity="0.12"></circle><circle r="12" cx="127" cy="776" stroke-width="2" stroke="hsl(176, 50%, 50%)" fill="none" opacity="0.81"></circle><circle r="11" cx="1126" cy="447" fill="hsl(105, 50%, 50%)" opacity="0.37"></circle><circle r="12.5" cx="63" cy="111" stroke-width="2" stroke="hsl(172, 50%, 50%)" fill="none" opacity="0.82"></circle><circle r="10" cx="982" cy="586" stroke-width="2" stroke="hsl(106, 50%, 50%)" fill="none" opacity="0.26"></circle><circle r="10" cx="695" cy="187" stroke-width="2" stroke="hsl(143, 50%, 50%)" fill="none" opacity="0.23"></circle><circle r="11.5" cx="1349" cy="22" stroke-width="2" stroke="hsl(168, 50%, 50%)" fill="none" opacity="0.35"></circle><circle r="11" cx="636" cy="417" stroke-width="2" stroke="hsl(158, 50%, 50%)" fill="none" opacity="0.49"></circle><circle r="9.5" cx="378" cy="25" fill="hsl(113, 50%, 50%)" opacity="0.15"></circle><circle r="17.5" cx="1384" cy="462" stroke-width="2" stroke="hsl(165, 50%, 50%)" fill="none" opacity="0.16"></circle><circle r="10" cx="420" cy="758" fill="hsl(174, 50%, 50%)" opacity="0.87"></circle><circle r="10.5" cx="1037" cy="377" fill="hsl(104, 50%, 50%)" opacity="0.57"></circle><circle r="16" cx="1392" cy="704" fill="hsl(165, 50%, 50%)" opacity="0.70"></circle><circle r="16.5" cx="1282" cy="34" fill="hsl(148, 50%, 50%)" opacity="0.84"></circle><circle r="13" cx="1271" cy="756" stroke-width="2" stroke="hsl(131, 50%, 50%)" fill="none" opacity="0.69"></circle><circle r="12.5" cx="1399" cy="39" stroke-width="2" stroke="hsl(174, 50%, 50%)" fill="none" opacity="0.90"></circle><circle r="6.5" cx="1025" cy="316" fill="hsl(104, 50%, 50%)" opacity="0.95"></circle><circle r="10.5" cx="761" cy="775" fill="hsl(131, 50%, 50%)" opacity="0.40"></circle><circle r="15.5" cx="566" cy="237" stroke-width="2" stroke="hsl(171, 50%, 50%)" fill="none" opacity="0.98"></circle><circle r="9" cx="895" cy="76" fill="hsl(101, 50%, 50%)" opacity="0.35"></circle><circle r="8" cx="149" cy="21" stroke-width="2" stroke="hsl(108, 50%, 50%)" fill="none" opacity="0.68"></circle><circle r="11.5" cx="499" cy="72" fill="hsl(133, 50%, 50%)" opacity="0.15"></circle><circle r="11" cx="1214" cy="608" fill="hsl(116, 50%, 50%)" opacity="0.91"></circle><circle r="16" cx="28" cy="775" fill="hsl(204, 50%, 50%)" opacity="0.31"></circle><circle r="14.5" cx="158" cy="375" stroke-width="2" stroke="hsl(165, 50%, 50%)" fill="none" opacity="0.68"></circle><circle r="10.5" cx="792" cy="534" stroke-width="2" stroke="hsl(127, 50%, 50%)" fill="none" opacity="0.12"></circle><circle r="10" cx="701" cy="741" fill="hsl(143, 50%, 50%)" opacity="0.75"></circle><circle r="7.5" cx="997" cy="288" fill="hsl(106, 50%, 50%)" opacity="0.28"></circle><circle r="15" cx="442" cy="554" stroke-width="2" stroke="hsl(176, 50%, 50%)" fill="none" opacity="0.32"></circle><circle r="11" cx="347" cy="608" fill="hsl(166, 50%, 50%)" opacity="0.12"></circle><circle r="10.5" cx="1029" cy="607" stroke-width="2" stroke="hsl(104, 50%, 50%)" fill="none" opacity="0.80"></circle><circle r="11" cx="1234" cy="691" fill="hsl(121, 50%, 50%)" opacity="0.60"></circle><circle r="11" cx="67" cy="62" fill="hsl(147, 50%, 50%)" opacity="0.12"></circle><circle r="10" cx="774" cy="489" stroke-width="2" stroke="hsl(131, 50%, 50%)" fill="none" opacity="0.25"></circle><circle r="14" cx="677" cy="554" fill="hsl(148, 50%, 50%)" opacity="0.11"></circle><circle r="10" cx="317" cy="30" stroke-width="2" stroke="hsl(104, 50%, 50%)" fill="none" opacity="0.37"></circle><circle r="13.5" cx="335" cy="492" stroke-width="2" stroke="hsl(166, 50%, 50%)" fill="none" opacity="0.61"></circle><circle r="16.5" cx="82" cy="286" stroke-width="2" stroke="hsl(189, 50%, 50%)" fill="none" opacity="0.94"></circle><circle r="11.5" cx="841" cy="706" stroke-width="2" stroke="hsl(121, 50%, 50%)" fill="none" opacity="0.68"></circle><circle r="9" cx="942" cy="358" fill="hsl(110, 50%, 50%)" opacity="0.24"></circle><circle r="10.5" cx="1091" cy="206" stroke-width="2" stroke="hsl(104, 50%, 50%)" fill="none" opacity="0.83"></circle><circle r="9" cx="1124" cy="69" stroke-width="2" stroke="hsl(115, 50%, 50%)" fill="none" opacity="0.99"></circle><circle r="12.5" cx="1339" cy="72" stroke-width="2" stroke="hsl(158, 50%, 50%)" fill="none" opacity="0.24"></circle><circle r="12.5" cx="308" cy="582" stroke-width="2" stroke="hsl(160, 50%, 50%)" fill="none" opacity="0.55"></circle><circle r="11.5" cx="278" cy="108" fill="hsl(123, 50%, 50%)" opacity="0.89"></circle><circle r="11" cx="264" cy="591" fill="hsl(158, 50%, 50%)" opacity="0.38"></circle><circle r="13" cx="1387" cy="283" stroke-width="2" stroke="hsl(165, 50%, 50%)" fill="none" opacity="0.88"></circle><circle r="15.5" cx="1393" cy="107" stroke-width="2" stroke="hsl(167, 50%, 50%)" fill="none" opacity="0.28"></circle><circle r="13" cx="16" cy="576" fill="hsl(211, 50%, 50%)" opacity="0.22"></circle><circle r="10.5" cx="999" cy="55" stroke-width="2" stroke="hsl(105, 50%, 50%)" fill="none" opacity="0.80"></circle><circle r="10" cx="972" cy="653" fill="hsl(108, 50%, 50%)" opacity="0.73"></circle><circle r="10" cx="862" cy="482" fill="hsl(119, 50%, 50%)" opacity="0.65"></circle><circle r="11.5" cx="1161" cy="168" fill="hsl(111, 50%, 50%)" opacity="0.66"></circle><circle r="17.5" cx="382" cy="251" fill="hsl(172, 50%, 50%)" opacity="0.96"></circle><circle r="12" cx="1399" cy="175" fill="hsl(165, 50%, 50%)" opacity="0.29"></circle><circle r="9" cx="590" cy="24" stroke-width="2" stroke="hsl(118, 50%, 50%)" fill="none" opacity="0.93"></circle><circle r="13.5" cx="405" cy="418" fill="hsl(174, 50%, 50%)" opacity="0.86"></circle><circle r="12.5" cx="646" cy="153" stroke-width="2" stroke="hsl(136, 50%, 50%)" fill="none" opacity="0.33"></circle><circle r="19" cx="88" cy="215" stroke-width="2" stroke="hsl(189, 50%, 50%)" fill="none" opacity="0.54"></circle><circle r="11.5" cx="647" cy="777" stroke-width="2" stroke="hsl(153, 50%, 50%)" fill="none" opacity="0.94"></circle><circle r="9.5" cx="1184" cy="293" fill="hsl(112, 50%, 50%)" opacity="0.36"></circle><circle r="14" cx="142" cy="174" fill="hsl(163, 50%, 50%)" opacity="0.16"></circle><circle r="11" cx="841" cy="543" fill="hsl(121, 50%, 50%)" opacity="0.50"></circle><circle r="11" cx="328" cy="84" stroke-width="2" stroke="hsl(118, 50%, 50%)" fill="none" opacity="0.58"></circle><circle r="8.5" cx="700" cy="782" fill="hsl(143, 50%, 50%)" opacity="0.56"></circle><circle r="13.5" cx="125" cy="720" stroke-width="2" stroke="hsl(176, 50%, 50%)" fill="none" opacity="0.28"></circle><circle r="12.5" cx="236" cy="500" fill="hsl(158, 50%, 50%)" opacity="0.27"></circle><circle r="9.5" cx="823" cy="77" fill="hsl(100, 50%, 50%)" opacity="0.16"></circle><circle r="9" cx="906" cy="320" stroke-width="2" stroke="hsl(114, 50%, 50%)" fill="none" opacity="0.69"></circle><circle r="9.5" cx="261" cy="29" fill="hsl(101, 50%, 50%)" opacity="0.93"></circle><circle r="9.5" cx="1146" cy="616" stroke-width="2" stroke="hsl(107, 50%, 50%)" fill="none" opacity="0.53"></circle><circle r="8" cx="1134" cy="742" stroke-width="2" stroke="hsl(107, 50%, 50%)" fill="none" opacity="0.45"></circle><circle r="12.5" cx="742" cy="578" stroke-width="2" stroke="hsl(134, 50%, 50%)" fill="none" opacity="0.21"></circle><circle r="12.5" cx="519" cy="638" stroke-width="2" stroke="hsl(177, 50%, 50%)" fill="none" opacity="0.27"></circle><circle r="12.5" cx="1245" cy="469" fill="hsl(126, 50%, 50%)" opacity="0.45"></circle><circle r="8.5" cx="953" cy="235" fill="hsl(110, 50%, 50%)" opacity="0.55"></circle><circle r="12" cx="1201" cy="228" fill="hsl(116, 50%, 50%)" opacity="0.62"></circle><circle r="11" cx="389" cy="611" stroke-width="2" stroke="hsl(172, 50%, 50%)" fill="none" opacity="0.29"></circle><circle r="10" cx="1065" cy="485" fill="hsl(103, 50%, 50%)" opacity="0.65"></circle><circle r="7.5" cx="1063" cy="320" stroke-width="2" stroke="hsl(103, 50%, 50%)" fill="none" opacity="0.92"></circle><circle r="11.5" cx="1220" cy="530" fill="hsl(116, 50%, 50%)" opacity="0.24"></circle><circle r="15" cx="1384" cy="399" fill="hsl(165, 50%, 50%)" opacity="0.90"></circle><circle r="16" cx="387" cy="189" fill="hsl(172, 50%, 50%)" opacity="0.46"></circle><circle r="11.5" cx="1279" cy="334" stroke-width="2" stroke="hsl(131, 50%, 50%)" fill="none" opacity="0.83"></circle><circle r="12.5" cx="1388" cy="234" stroke-width="2" stroke="hsl(165, 50%, 50%)" fill="none" opacity="0.43"></circle><circle r="12.5" cx="1308" cy="112" fill="hsl(142, 50%, 50%)" opacity="0.23"></circle><circle r="15" cx="430" cy="673" fill="hsl(176, 50%, 50%)" opacity="0.53"></circle><circle r="10.5" cx="740" cy="454" fill="hsl(134, 50%, 50%)" opacity="0.38"></circle><circle r="15" cx="133" cy="326" stroke-width="2" stroke="hsl(176, 50%, 50%)" fill="none" opacity="0.47"></circle><circle r="10.5" cx="1171" cy="559" fill="hsl(109, 50%, 50%)" opacity="0.62"></circle><circle r="8" cx="1108" cy="658" fill="hsl(104, 50%, 50%)" opacity="0.62"></circle><circle r="18.5" cx="455" cy="189" stroke-width="2" stroke="hsl(178, 50%, 50%)" fill="none" opacity="0.82"></circle><circle r="9.5" cx="974" cy="130" stroke-width="2" stroke="hsl(104, 50%, 50%)" fill="none" opacity="0.15"></circle><circle r="12" cx="1317" cy="293" fill="hsl(144, 50%, 50%)" opacity="0.18"></circle><circle r="11.5" cx="17" cy="688" stroke-width="2" stroke="hsl(211, 50%, 50%)" fill="none" opacity="0.81"></circle><circle r="18" cx="315" cy="208" stroke-width="2" stroke="hsl(163, 50%, 50%)" fill="none" opacity="0.50"></circle><circle r="12.5" cx="1227" cy="168" stroke-width="2" stroke="hsl(123, 50%, 50%)" fill="none" opacity="0.70"></circle><circle r="9" cx="944" cy="93" stroke-width="2" stroke="hsl(103, 50%, 50%)" fill="none" opacity="0.60"></circle><circle r="13.5" cx="437" cy="465" fill="hsl(176, 50%, 50%)" opacity="0.90"></circle><circle r="13" cx="486" cy="464" fill="hsl(178, 50%, 50%)" opacity="0.15"></circle><circle r="7.5" cx="962" cy="27" stroke-width="2" stroke="hsl(105, 50%, 50%)" fill="none" opacity="0.52"></circle><circle r="11.5" cx="283" cy="734" stroke-width="2" stroke="hsl(158, 50%, 50%)" fill="none" opacity="0.12"></circle><circle r="11.5" cx="144" cy="513" stroke-width="2" stroke="hsl(170, 50%, 50%)" fill="none" opacity="0.17"></circle><circle r="9" cx="1128" cy="22" fill="hsl(120, 50%, 50%)" opacity="0.95"></circle><circle r="14" cx="456" cy="380" fill="hsl(178, 50%, 50%)" opacity="0.92"></circle><circle r="15" cx="602" cy="570" fill="hsl(163, 50%, 50%)" opacity="0.45"></circle><circle r="15" cx="532" cy="175" fill="hsl(167, 50%, 50%)" opacity="0.13"></circle><circle r="13" cx="798" cy="597" fill="hsl(127, 50%, 50%)" opacity="0.78"></circle><circle r="10.5" cx="651" cy="458" fill="hsl(153, 50%, 50%)" opacity="0.57"></circle><circle r="14" cx="92" cy="150" stroke-width="2" stroke="hsl(170, 50%, 50%)" fill="none" opacity="0.16"></circle><circle r="11.5" cx="826" cy="243" fill="hsl(121, 50%, 50%)" opacity="0.85"></circle><circle r="12.5" cx="56" cy="679" stroke-width="2" stroke="hsl(197, 50%, 50%)" fill="none" opacity="0.80"></circle><circle r="14" cx="674" cy="331" fill="hsl(148, 50%, 50%)" opacity="0.84"></circle><circle r="16" cx="539" cy="554" stroke-width="2" stroke="hsl(174, 50%, 50%)" fill="none" opacity="0.98"></circle><circle r="17.5" cx="540" cy="292" fill="hsl(174, 50%, 50%)" opacity="0.22"></circle><circle r="14" cx="72" cy="435" stroke-width="2" stroke="hsl(189, 50%, 50%)" fill="none" opacity="0.56"></circle><circle r="10.5" cx="896" cy="723" fill="hsl(114, 50%, 50%)" opacity="0.66"></circle><circle r="10.5" cx="1234" cy="295" fill="hsl(121, 50%, 50%)" opacity="0.43"></circle><circle r="8" cx="957" cy="300" fill="hsl(108, 50%, 50%)" opacity="0.37"></circle><circle r="11" cx="1228" cy="354" stroke-width="2" stroke="hsl(121, 50%, 50%)" fill="none" opacity="0.73"></circle><circle r="8.5" cx="1001" cy="242" fill="hsl(105, 50%, 50%)" opacity="0.90"></circle><circle r="14" cx="54" cy="483" fill="hsl(197, 50%, 50%)" opacity="0.68"></circle><circle r="12.5" cx="135" cy="273" stroke-width="2" stroke="hsl(170, 50%, 50%)" fill="none" opacity="0.97"></circle><circle r="10.5" cx="662" cy="216" fill="hsl(153, 50%, 50%)" opacity="0.59"></circle><circle r="16.5" cx="1390" cy="536" fill="hsl(165, 50%, 50%)" opacity="0.41"></circle><circle r="9" cx="438" cy="22" stroke-width="2" stroke="hsl(118, 50%, 50%)" fill="none" opacity="0.61"></circle><circle r="14.5" cx="80" cy="771" fill="hsl(189, 50%, 50%)" opacity="0.59"></circle><circle r="11" cx="489" cy="764" stroke-width="2" stroke="hsl(178, 50%, 50%)" fill="none" opacity="0.29"></circle><circle r="11.5" cx="382" cy="78" stroke-width="2" stroke="hsl(125, 50%, 50%)" fill="none" opacity="0.90"></circle><circle r="11.5" cx="107" cy="626" stroke-width="2" stroke="hsl(182, 50%, 50%)" fill="none" opacity="0.73"></circle><circle r="13.5" cx="1397" cy="629" stroke-width="2" stroke="hsl(165, 50%, 50%)" fill="none" opacity="0.97"></circle><circle r="15" cx="1316" cy="465" stroke-width="2" stroke="hsl(144, 50%, 50%)" fill="none" opacity="0.29"></circle><circle r="14" cx="533" cy="479" fill="hsl(177, 50%, 50%)" opacity="0.60"></circle><circle r="14" cx="484" cy="681" fill="hsl(178, 50%, 50%)" opacity="0.49"></circle><circle r="10" cx="1164" cy="497" stroke-width="2" stroke="hsl(109, 50%, 50%)" fill="none" opacity="0.19"></circle><circle r="11.5" cx="50" cy="600" stroke-width="2" stroke="hsl(197, 50%, 50%)" fill="none" opacity="0.13"></circle><circle r="9" cx="1028" cy="200" fill="hsl(104, 50%, 50%)" opacity="0.29"></circle><circle r="11.5" cx="1054" cy="30" stroke-width="2" stroke="hsl(113, 50%, 50%)" fill="none" opacity="0.60"></circle><circle r="11.5" cx="1210" cy="771" stroke-width="2" stroke="hsl(116, 50%, 50%)" fill="none" opacity="0.46"></circle><circle r="9" cx="190" cy="85" fill="hsl(122, 50%, 50%)" opacity="0.46"></circle><circle r="16" cx="1311" cy="393" stroke-width="2" stroke="hsl(144, 50%, 50%)" fill="none" opacity="0.32"></circle><circle r="13.5" cx="24" cy="527" fill="hsl(204, 50%, 50%)" opacity="0.99"></circle><circle r="11.5" cx="262" cy="778" stroke-width="2" stroke="hsl(158, 50%, 50%)" fill="none" opacity="0.72"></circle><circle r="12" cx="1314" cy="240" stroke-width="2" stroke="hsl(144, 50%, 50%)" fill="none" opacity="0.14"></circle><circle r="13" cx="386" cy="564" fill="hsl(172, 50%, 50%)" opacity="0.43"></circle><circle r="12.5" cx="1344" cy="199" stroke-width="2" stroke="hsl(151, 50%, 50%)" fill="none" opacity="0.74"></circle></svg>